<svg xmlns="http://www.w3.org/2000/svg" width="220.534" height="53.009" viewBox="0 0 220.534 53.009">
  <g id="Group_211" data-name="Group 211" transform="translate(-706.638 -204)">
    <path id="Path_12" data-name="Path 12" d="M-64.68-2.184a1.884,1.884,0,0,1,.14.672,1.585,1.585,0,0,1-.476,1.19A1.524,1.524,0,0,1-66.108.14a1.468,1.468,0,0,1-.91-.308,2,2,0,0,1-.63-.84L-69.1-4.4h-8.344L-78.9-.98a1.722,1.722,0,0,1-.6.826,1.473,1.473,0,0,1-.882.294,1.467,1.467,0,0,1-1.106-.392,1.468,1.468,0,0,1-.378-1.064,1.852,1.852,0,0,1,.084-.532l6.972-16.744a1.858,1.858,0,0,1,.672-.868,1.467,1.467,0,0,1,1.008-.252,1.64,1.64,0,0,1,.938.294,1.659,1.659,0,0,1,.63.826Zm-11.4-5.432h5.6L-73.3-14.168Zm20.16-7.644a8.477,8.477,0,0,1,3.836.742,2.224,2.224,0,0,1,1.456,1.974,1.691,1.691,0,0,1-.364,1.078A1.155,1.155,0,0,1-51.94-11a1.789,1.789,0,0,1-.728-.126,2.614,2.614,0,0,1-.546-.336,3.9,3.9,0,0,0-.518-.35,3.513,3.513,0,0,0-.826-.252,4.607,4.607,0,0,0-.882-.112,4.234,4.234,0,0,0-3.29,1.3,4.846,4.846,0,0,0-1.19,3.4,4.8,4.8,0,0,0,1.2,3.346,3.969,3.969,0,0,0,3.08,1.33,4.765,4.765,0,0,0,2.044-.336,3.786,3.786,0,0,0,.462-.294,3.178,3.178,0,0,1,.546-.322,1.514,1.514,0,0,1,.616-.112,1.418,1.418,0,0,1,1.106.448,1.644,1.644,0,0,1,.406,1.148,1.621,1.621,0,0,1-.784,1.26,6.106,6.106,0,0,1-2.072.938,10.425,10.425,0,0,1-2.744.35A7.091,7.091,0,0,1-59.85-.728a6.779,6.779,0,0,1-2.534-2.786,8.678,8.678,0,0,1-.9-3.962,8.456,8.456,0,0,1,.938-4.032,6.9,6.9,0,0,1,2.618-2.758A7.335,7.335,0,0,1-55.916-15.26Zm25.172,0q2.772,0,3.836,1.694a8.792,8.792,0,0,1,1.064,4.69v7.168A1.679,1.679,0,0,1-26.32-.49a1.607,1.607,0,0,1-1.2.49,1.607,1.607,0,0,1-1.2-.49A1.679,1.679,0,0,1-29.2-1.708V-8.876a4.245,4.245,0,0,0-.6-2.422,2.375,2.375,0,0,0-2.114-.882,3.2,3.2,0,0,0-2.45.938,3.318,3.318,0,0,0-.882,2.366v7.168A1.679,1.679,0,0,1-35.728-.49a1.607,1.607,0,0,1-1.2.49,1.607,1.607,0,0,1-1.2-.49,1.679,1.679,0,0,1-.476-1.218V-8.876a4.245,4.245,0,0,0-.6-2.422,2.375,2.375,0,0,0-2.114-.882,3.2,3.2,0,0,0-2.45.938,3.318,3.318,0,0,0-.882,2.366v7.168A1.679,1.679,0,0,1-45.136-.49a1.607,1.607,0,0,1-1.2.49,1.607,1.607,0,0,1-1.2-.49,1.679,1.679,0,0,1-.476-1.218V-13.272a1.679,1.679,0,0,1,.476-1.218,1.607,1.607,0,0,1,1.2-.49,1.607,1.607,0,0,1,1.2.49,1.679,1.679,0,0,1,.476,1.218v.448a6.838,6.838,0,0,1,1.918-1.722,4.849,4.849,0,0,1,2.59-.714q3.528,0,4.508,3.08A6.594,6.594,0,0,1-33.7-14.308,4.879,4.879,0,0,1-30.744-15.26Zm21.98,7.42A1.438,1.438,0,0,1-9.3-6.748a1.781,1.781,0,0,1-1.176.42h-9.24a4.222,4.222,0,0,0,1.54,2.59,4.305,4.305,0,0,0,2.716.938,6.019,6.019,0,0,0,1.792-.21,4.667,4.667,0,0,0,1.022-.448q.378-.238.518-.322a2.136,2.136,0,0,1,.952-.252,1.375,1.375,0,0,1,1.008.42,1.343,1.343,0,0,1,.42.98,1.747,1.747,0,0,1-.784,1.372,6.69,6.69,0,0,1-2.1,1.092,8.2,8.2,0,0,1-2.66.448,8.259,8.259,0,0,1-4.1-.98,6.84,6.84,0,0,1-2.7-2.7,7.879,7.879,0,0,1-.952-3.878,8.585,8.585,0,0,1,1.008-4.228,7.157,7.157,0,0,1,2.66-2.786,6.875,6.875,0,0,1,3.528-.966,6.541,6.541,0,0,1,3.486,1.008,7.535,7.535,0,0,1,2.618,2.716A7.3,7.3,0,0,1-8.764-7.84Zm-7.084-4.34a3.476,3.476,0,0,0-3.836,3.052h7.336v-.2A2.9,2.9,0,0,0-13.5-11.34,3.634,3.634,0,0,0-15.848-12.18Zm32.452,1.6a1.607,1.607,0,0,1,1.2.49,1.679,1.679,0,0,1,.476,1.218V-2.94a1.679,1.679,0,0,1-.868,1.512A11.171,11.171,0,0,1,11.4.28,10.07,10.07,0,0,1,6.272-1.078,10.172,10.172,0,0,1,2.548-4.746,9.717,9.717,0,0,1,1.176-9.8a9.717,9.717,0,0,1,1.372-5.054,10.172,10.172,0,0,1,3.724-3.668A10.07,10.07,0,0,1,11.4-19.88a9.871,9.871,0,0,1,4.816,1.12,1.541,1.541,0,0,1,.63.588,1.543,1.543,0,0,1,.21.784,1.771,1.771,0,0,1-.462,1.218,1.461,1.461,0,0,1-1.134.518,2.3,2.3,0,0,1-.924-.224A7.925,7.925,0,0,0,11.4-16.52a6.289,6.289,0,0,0-3.3.91A6.7,6.7,0,0,0,5.7-13.16,6.644,6.644,0,0,0,4.816-9.8,6.644,6.644,0,0,0,5.7-6.44,6.7,6.7,0,0,0,8.092-3.99a6.289,6.289,0,0,0,3.3.91,10.914,10.914,0,0,0,1.68-.14,9.759,9.759,0,0,0,1.568-.364v-3.64H12.012A1.679,1.679,0,0,1,10.794-7.7a1.607,1.607,0,0,1-.49-1.2,1.607,1.607,0,0,1,.49-1.2,1.679,1.679,0,0,1,1.218-.476ZM29.148-15.26a2.141,2.141,0,0,1,1.414.476,1.419,1.419,0,0,1,.574,1.12,1.735,1.735,0,0,1-.448,1.3,1.477,1.477,0,0,1-1.064.434,2.794,2.794,0,0,1-.952-.2q-.084-.028-.378-.112a2.284,2.284,0,0,0-.63-.084,2.488,2.488,0,0,0-1.4.448,3.269,3.269,0,0,0-1.106,1.358,5,5,0,0,0-.434,2.17v6.636A1.679,1.679,0,0,1,24.248-.49a1.607,1.607,0,0,1-1.2.49,1.607,1.607,0,0,1-1.2-.49,1.679,1.679,0,0,1-.476-1.218V-13.272a1.679,1.679,0,0,1,.476-1.218,1.607,1.607,0,0,1,1.2-.49,1.607,1.607,0,0,1,1.2.49,1.679,1.679,0,0,1,.476,1.218v.364a4.242,4.242,0,0,1,1.848-1.75A5.682,5.682,0,0,1,29.148-15.26ZM47.292-7.476a8,8,0,0,1-1.008,4.018A7.121,7.121,0,0,1,43.526-.7a7.745,7.745,0,0,1-3.85.98A7.722,7.722,0,0,1,35.812-.7a7.149,7.149,0,0,1-2.744-2.758A8,8,0,0,1,32.06-7.476a8,8,0,0,1,1.008-4.018,7.25,7.25,0,0,1,2.744-2.772,7.637,7.637,0,0,1,3.864-.994,7.66,7.66,0,0,1,3.85.994,7.22,7.22,0,0,1,2.758,2.772A8,8,0,0,1,47.292-7.476Zm-3.36,0a5.132,5.132,0,0,0-.574-2.45,4.224,4.224,0,0,0-1.54-1.666,4.04,4.04,0,0,0-2.142-.588,4.04,4.04,0,0,0-2.142.588,4.224,4.224,0,0,0-1.54,1.666,5.132,5.132,0,0,0-.574,2.45,5.05,5.05,0,0,0,.574,2.436,4.247,4.247,0,0,0,1.54,1.652,4.04,4.04,0,0,0,2.142.588,4.04,4.04,0,0,0,2.142-.588,4.247,4.247,0,0,0,1.54-1.652A5.05,5.05,0,0,0,43.932-7.476Zm17.276-7.5a1.607,1.607,0,0,1,1.2.49,1.679,1.679,0,0,1,.476,1.218V-6.16a6.489,6.489,0,0,1-1.666,4.732A6.328,6.328,0,0,1,56.476.28a6.28,6.28,0,0,1-4.732-1.708A6.522,6.522,0,0,1,50.092-6.16v-7.112a1.679,1.679,0,0,1,.476-1.218,1.607,1.607,0,0,1,1.2-.49,1.607,1.607,0,0,1,1.2.49,1.679,1.679,0,0,1,.476,1.218V-6.16a3.655,3.655,0,0,0,.756,2.534,2.924,2.924,0,0,0,2.268.826,2.963,2.963,0,0,0,2.3-.826,3.655,3.655,0,0,0,.756-2.534v-7.112A1.679,1.679,0,0,1,60-14.49,1.607,1.607,0,0,1,61.208-14.98Zm13.076-.28a6.4,6.4,0,0,1,3.5.994,6.969,6.969,0,0,1,2.478,2.758,8.606,8.606,0,0,1,.91,4,8.8,8.8,0,0,1-.9,4.018,6.884,6.884,0,0,1-2.45,2.772A6.236,6.236,0,0,1,74.4.28a6,6,0,0,1-2.534-.546A6.718,6.718,0,0,1,69.888-1.6V3.892a1.679,1.679,0,0,1-.476,1.218,1.607,1.607,0,0,1-1.2.49A1.632,1.632,0,0,1,67,5.124a1.667,1.667,0,0,1-.476-1.232V-13.272A1.679,1.679,0,0,1,67-14.49a1.607,1.607,0,0,1,1.2-.49,1.607,1.607,0,0,1,1.2.49,1.679,1.679,0,0,1,.476,1.218v.112a5.8,5.8,0,0,1,1.876-1.47A5.364,5.364,0,0,1,74.284-15.26ZM73.864-2.8A3.693,3.693,0,0,0,76.8-4.144,4.992,4.992,0,0,0,77.952-7.5a4.977,4.977,0,0,0-1.134-3.346,3.7,3.7,0,0,0-2.954-1.33A3.739,3.739,0,0,0,70.9-10.85,4.938,4.938,0,0,0,69.748-7.5,4.992,4.992,0,0,0,70.9-4.144,3.722,3.722,0,0,0,73.864-2.8Z" transform="translate(846 244)" fill="#969696"/>
    <g id="Group_210" data-name="Group 210">
      <rect id="Rectangle_34" data-name="Rectangle 34" width="39" height="39" rx="10" transform="translate(714.079 207.637) rotate(11)" fill="#ffe6e6"/>
      <path id="Polygon_1" data-name="Polygon 1" d="M14.552,3.456a3,3,0,0,1,4.9,0l11.2,15.81A3,3,0,0,1,28.2,24H5.8a3,3,0,0,1-2.448-4.734Z" transform="translate(725 204)" fill="#ebf9ed"/>
      <rect id="Rectangle_35" data-name="Rectangle 35" width="11" height="33" rx="4" transform="translate(708.714 229.651) rotate(-34)" fill="#ced4ff"/>
    </g>
  </g>
</svg>
