<svg xmlns="http://www.w3.org/2000/svg" xmlns:xlink="http://www.w3.org/1999/xlink" width="210.992" height="191.362" viewBox="0 0 210.992 191.362">
  <defs>
    <filter id="Rectangle_3" x="3.267" y="21.083" width="133.762" height="131.38" filterUnits="userSpaceOnUse">
      <feOffset dy="3" input="SourceAlpha"/>
      <feGaussianBlur stdDeviation="12.5" result="blur"/>
      <feFlood flood-opacity="0.161"/>
      <feComposite operator="in" in2="blur"/>
      <feComposite in="SourceGraphic"/>
    </filter>
    <filter id="Rectangle_4" x="0" y="43.928" width="136.689" height="147.434" filterUnits="userSpaceOnUse">
      <feOffset dy="3" input="SourceAlpha"/>
      <feGaussianBlur stdDeviation="12.5" result="blur-2"/>
      <feFlood flood-opacity="0.161"/>
      <feComposite operator="in" in2="blur-2"/>
      <feComposite in="SourceGraphic"/>
    </filter>
    <filter id="Rectangle_1" x="0.629" y="0" width="92.59" height="186.127" filterUnits="userSpaceOnUse">
      <feOffset dy="3" input="SourceAlpha"/>
      <feGaussianBlur stdDeviation="12.5" result="blur-3"/>
      <feFlood flood-opacity="0.161"/>
      <feComposite operator="in" in2="blur-3"/>
      <feComposite in="SourceGraphic"/>
    </filter>
    <filter id="Path_1" x="59.144" y="67.732" width="151.848" height="120.368" filterUnits="userSpaceOnUse">
      <feOffset dy="3" input="SourceAlpha"/>
      <feGaussianBlur stdDeviation="12.5" result="blur-4"/>
      <feFlood flood-opacity="0.161"/>
      <feComposite operator="in" in2="blur-4"/>
      <feComposite in="SourceGraphic"/>
    </filter>
    <filter id="Path_2" x="111.885" y="68.093" width="99.026" height="88.758" filterUnits="userSpaceOnUse">
      <feOffset dy="3" input="SourceAlpha"/>
      <feGaussianBlur stdDeviation="12.5" result="blur-5"/>
      <feFlood flood-opacity="0.161"/>
      <feComposite operator="in" in2="blur-5"/>
      <feComposite in="SourceGraphic"/>
    </filter>
    <filter id="Path_3" x="90.721" y="68.093" width="88.747" height="88.778" filterUnits="userSpaceOnUse">
      <feOffset dy="3" input="SourceAlpha"/>
      <feGaussianBlur stdDeviation="12.5" result="blur-6"/>
      <feFlood flood-opacity="0.161"/>
      <feComposite operator="in" in2="blur-6"/>
      <feComposite in="SourceGraphic"/>
    </filter>
    <filter id="Path_4" x="59.139" y="36.355" width="120.144" height="120.54" filterUnits="userSpaceOnUse">
      <feOffset dy="3" input="SourceAlpha"/>
      <feGaussianBlur stdDeviation="12.5" result="blur-7"/>
      <feFlood flood-opacity="0.161"/>
      <feComposite operator="in" in2="blur-7"/>
      <feComposite in="SourceGraphic"/>
    </filter>
  </defs>
  <g id="Group_248" data-name="Group 248" transform="translate(-900.872 -461.979)">
    <g id="Group_1" data-name="Group 1" transform="translate(762.199 306.479)">
      <g transform="matrix(1, 0, 0, 1, 138.67, 155.5)" filter="url(#Rectangle_3)">
        <rect id="Rectangle_3-2" data-name="Rectangle 3" width="16.603" height="64.864" rx="8.302" transform="matrix(0.68, 0.73, -0.73, 0.68, 88.21, 55.58)" fill="#40916c"/>
      </g>
      <g transform="matrix(1, 0, 0, 1, 138.67, 155.5)" filter="url(#Rectangle_4)">
        <rect id="Rectangle_4-2" data-name="Rectangle 4" width="16.603" height="78.948" rx="8.302" transform="matrix(-0.79, 0.62, -0.62, -0.79, 99.19, 140.64)" fill="#52b788"/>
      </g>
      <g transform="matrix(1, 0, 0, 1, 138.67, 155.5)" filter="url(#Rectangle_1)">
        <rect id="Rectangle_1-2" data-name="Rectangle 1" width="17.59" height="111.127" rx="8.795" transform="translate(38.13 34.5)" fill="#1b4332"/>
      </g>
      <g id="only-logo" transform="translate(235.312 226.355)">
        <g transform="matrix(1, 0, 0, 1, -96.64, -70.86)" filter="url(#Path_1)">
          <path id="Path_1-2" data-name="Path 1" d="M69.548,100.548a7.053,7.053,0,0,1,7.287,6.389c1.383,17.9-15,37.946-38.078,38.587A38.135,38.135,0,0,1,.068,106.886a6.734,6.734,0,0,1,13.467,0,24.668,24.668,0,0,0,24.892,25.2c15.312-.425,25.267-13.684,24.749-24.51A6.712,6.712,0,0,1,69.548,100.548Z" transform="translate(96.58 2.07)" fill="#1b4332"/>
        </g>
        <g transform="matrix(1, 0, 0, 1, -96.64, -70.86)" filter="url(#Path_2)">
          <path id="Path_2-2" data-name="Path 2" d="M168.15,108.2a6.9,6.9,0,0,1,6.921-6.879h10.087a6.88,6.88,0,1,1,0,13.758H175.071A6.9,6.9,0,0,1,168.15,108.2Z" transform="translate(-18.76 1.28)" fill="#52b788"/>
        </g>
        <g transform="matrix(1, 0, 0, 1, -96.64, -70.86)" filter="url(#Path_3)">
          <path id="Path_3-2" data-name="Path 3" d="M100.7,108.207a6.873,6.873,0,1,1,6.873,6.889A6.882,6.882,0,0,1,100.7,108.207Z" transform="translate(27.52 1.28)" fill="#00a672"/>
        </g>
        <g transform="matrix(1, 0, 0, 1, -96.64, -70.86)" filter="url(#Path_4)">
          <path id="Path_4-2" data-name="Path 4" d="M45.189,6.612A6.711,6.711,0,0,1,38.772,13.6c-15.961.665-25.7,13.209-25.23,25.12a6.663,6.663,0,0,1-6.368,6.982,6.916,6.916,0,0,1-7.1-6.552C-.7,19.743,15.467.554,38.216.177A6.708,6.708,0,0,1,45.189,6.612Z" transform="translate(96.59 70.68)" fill="#40916c" fill-rule="evenodd"/>
        </g>
      </g>
    </g>
  </g>
</svg>
